<svg width="256" height="255" xmlns="http://www.w3.org/2000/svg"><g fill="none" fill-rule="evenodd"><g transform="translate(88.126 220.893)"><path fill="#9B9B9B" d="M28 .107h20v34H28z"/><rect fill="#444" y="26.107" width="76" height="8" rx="3"/></g><path d="M243.429 81.763V216.89l8.887 5.21c2.186-2.84 3.506-6.518 3.506-10.537V87.221c0-8.995-6.602-16.284-14.746-16.284H14.916c-4.4 0-8.35 2.128-11.053 5.502l9.081 5.324H243.43" fill-opacity=".87" fill="#000"/><path d="M243.429 216.891v.129H12.56V81.763h.383l-9.08-5.324C1.563 79.311.166 83.085.166 87.221v124.343c0 8.99 6.602 16.281 14.75 16.281h226.159c4.503 0 8.534-2.23 11.24-5.743l-8.887-5.21" fill="#444"/><path fill="#1B99E8" d="M12.561 217.02H243.43V81.763H12.56z"/><path d="M123.882 76.315a4.11 4.11 0 0 0 4.116 4.106 4.109 4.109 0 0 0 4.11-4.106 4.107 4.107 0 0 0-4.11-4.103 4.109 4.109 0 0 0-4.116 4.103" fill="#B7B5B1"/><path d="M192.153 184.452l6.858 2.923s6.309-5.113 13.99-4.018c6.324.901 9.875 4.016 12.07 9.492l18.135 10.079.152 14.014-89.244-2.92-22.31-17.888 13.532-13.872 46.817 2.19" fill="#C8C6C1"/><path d="M131.72 175.232c.565 1.468 1.17 2.955 1.816 4.453h.01c.178-.011.356-.02.535-.027.2-.004.4-.01.601-.006.256.002.51.013.761.03.084.005.167.015.25.022.168.014.335.027.5.047.1.011.198.028.298.041.148.021.294.04.44.065.105.018.21.04.314.06.137.027.276.053.412.083.107.024.213.052.32.078.13.033.262.065.391.1.108.03.214.064.32.096.127.039.253.077.377.118.107.035.212.074.318.112.122.044.243.088.363.135a14.481 14.481 0 0 1 .974.423c.114.056.227.11.338.168a15.812 15.812 0 0 1 1.24.715 14.173 14.173 0 0 1 .592.401c.09.066.18.13.269.197.102.077.202.156.302.235.085.068.17.135.254.205.1.084.199.17.297.255.079.07.159.14.236.21.1.092.197.186.294.281.072.07.145.139.215.21.1.102.199.207.297.313.05.053.102.105.152.16l.038.044c.073.082.143.166.215.25.075.086.15.175.224.265.068.083.133.169.2.253.072.094.145.186.215.282.063.086.125.172.185.259a14.013 14.013 0 0 1 .568.867 13.376 13.376 0 0 1 .337.59c.028.05.054.102.08.153h51.743s.042-2.257-1.411-4.309l-.174-.182-.122-.13a9.699 9.699 0 0 0-.378-.355l-.05-.047c-.148-.132-.3-.26-.455-.382-.032-.026-.065-.048-.097-.073a10.42 10.42 0 0 0-.372-.277c-.057-.04-.114-.076-.172-.115-.104-.07-.208-.14-.314-.207-.068-.042-.136-.082-.204-.122a8.022 8.022 0 0 0-.299-.173l-.223-.118a9.081 9.081 0 0 0-.295-.148c-.078-.038-.158-.074-.236-.11a11.205 11.205 0 0 0-.542-.226 10.91 10.91 0 0 0-1.112-.36c-.103-.027-.206-.05-.31-.074a3.448 3.448 0 0 1-.325-.07 11.19 11.19 0 0 0-.257-.047c-.084-.014-.167-.03-.251-.042-.117-.018-.235-.03-.353-.044-.076-.008-.152-.019-.23-.026a9.95 9.95 0 0 0-.455-.029c-.043-.002-.087-.006-.13-.007a10.43 10.43 0 0 0-1.223.03 10.508 10.508 0 0 0-4.26 1.312 6.341 6.341 0 0 0-.582-4.658c-.03-.055-.062-.106-.093-.16a6.624 6.624 0 0 0-.338-.519 6.366 6.366 0 0 0-.241-.312l-.126-.151a6.789 6.789 0 0 0-.328-.346c-.024-.022-.044-.046-.067-.068a6.149 6.149 0 0 0-.425-.368c-.045-.036-.092-.07-.138-.104a6.193 6.193 0 0 0-.822-.526c-.057-.03-.113-.062-.17-.09a6.578 6.578 0 0 0-.437-.198c-.025-.01-.049-.023-.074-.032a6.084 6.084 0 0 0-.526-.18c-.055-.017-.111-.03-.167-.045a6.784 6.784 0 0 0-.58-.129 6.631 6.631 0 0 0-.386-.054c-.06-.006-.12-.015-.18-.02a6.457 6.457 0 0 0-.53-.022h-.038c-.19 0-.38.012-.571.03-.058.006-.115.015-.172.023a6.917 6.917 0 0 0-.603.104c-.134.03-.267.065-.4.104-.059.017-.118.033-.177.052-.188.06-.376.129-.562.209-.018.007-.035.017-.053.025-.135.059-.266.122-.394.19-.044.022-.086.047-.13.07a6.86 6.86 0 0 0-.293.173l-.127.081a6.288 6.288 0 0 0-.3.21l-.086.064c-.122.093-.24.191-.353.292l-.093.088a6.508 6.508 0 0 0-.58.615c-.027.035-.055.067-.082.1a6.309 6.309 0 0 0-.275.376 6.937 6.937 0 0 0-.245.395l-.065.117a6.446 6.446 0 0 0-.157.307l-.057.118a7.005 7.005 0 0 0-.178.425 6.766 6.766 0 0 0-.145.447c-.012.036-.02.074-.03.111-.032.116-.06.233-.085.35-.016.078-.034.154-.047.232a10.489 10.489 0 0 0-12.668-.29l-1.244-.17a14.304 14.304 0 0 0-.89-2.31c-.03-.063-.062-.124-.094-.187a13.752 13.752 0 0 0-.942-1.6l-.1-.148c-.126-.18-.255-.358-.389-.531l-.032-.041a15.356 15.356 0 0 0-.376-.464c-.043-.052-.088-.101-.132-.152a14.136 14.136 0 0 0-.922-.968l-.131-.12a14.49 14.49 0 0 0-.64-.562l-.135-.112a14.507 14.507 0 0 0-.752-.564l-.18-.124c-.254-.172-.511-.338-.774-.494-.014-.009-.029-.019-.045-.027a14.978 14.978 0 0 0-1.037-.55c-.283-.136-.57-.265-.861-.383-.042-.017-.084-.031-.125-.047-.268-.106-.54-.203-.815-.293-.059-.02-.117-.04-.176-.057a14.822 14.822 0 0 0-1.097-.294c-.29-.067-.58-.125-.875-.173-.033-.005-.065-.013-.098-.018a14.619 14.619 0 0 0-1.164-.132c-.322-.024-.645-.04-.97-.042l-.068.001a14.027 14.027 0 0 0-1.126.043c-.323.025-.644.06-.967.106a14.75 14.75 0 0 0-1.057.196l-.144.03c-.32.075-.64.163-.959.261l-.21.067a14.46 14.46 0 0 0-.969.347c-2.901-5.14-5.493-33.694-6.918-43.055l-7.918 1.2c.211 1.664 1.917 34.104 7.467 48.52" fill="#C8C6C1"/><path d="M147.188 187.223a12.985 12.985 0 0 0-.337-.59 12.697 12.697 0 0 0-.191-.307 11.79 11.79 0 0 0-.377-.561 12.81 12.81 0 0 0-.185-.26c-.07-.095-.143-.187-.216-.28-.066-.085-.131-.171-.199-.254a14.29 14.29 0 0 0-.224-.266c-.072-.083-.142-.167-.215-.249-.062-.07-.127-.136-.19-.204-.098-.106-.196-.21-.297-.313-.07-.071-.143-.14-.215-.21-.097-.095-.194-.189-.294-.28-.077-.072-.157-.141-.236-.21a15.229 15.229 0 0 0-.297-.256c-.084-.07-.169-.137-.254-.205-.1-.079-.2-.158-.302-.235-.089-.067-.18-.131-.27-.197a16.493 16.493 0 0 0-.59-.401 13.777 13.777 0 0 0-1.24-.715c-.112-.057-.225-.112-.338-.167a12.654 12.654 0 0 0-.66-.295c-.104-.044-.209-.088-.315-.129-.12-.047-.24-.09-.363-.135-.106-.038-.211-.077-.318-.112a21.82 21.82 0 0 0-.376-.118c-.107-.032-.213-.065-.32-.095-.13-.036-.262-.068-.392-.1-.107-.027-.213-.055-.32-.079-.136-.03-.275-.056-.412-.083-.104-.02-.21-.042-.314-.06-.145-.025-.292-.044-.44-.065-.1-.013-.198-.03-.298-.041-.165-.02-.332-.033-.5-.047-.083-.007-.166-.017-.25-.022a13.938 13.938 0 0 0-.76-.03c-.203-.004-.403.002-.602.006a19.44 19.44 0 0 0-.534.027h-.01a121.307 121.307 0 0 1-1.817-4.453c-5.55-14.415-5.652-47.99-5.864-49.653l7.145-.235-13.907.457s-3.478 32.292-7.463 43.286a82.485 82.485 0 0 1-2.634 6.464c-3.94-3.473-9.95-3.516-13.943.083a10.447 10.447 0 0 0-2.257 2.899c-3.71-1.757-8.273-1.233-11.511 1.686-.159.142-.309.29-.457.44a6.367 6.367 0 0 0-1.27-2.12 6.417 6.417 0 0 0-9.05-.46 6.364 6.364 0 0 0-2.105 4.655c-3.646-1.568-8.03-.991-11.17 1.839a10.461 10.461 0 0 0-2.204 2.802h92.238c-.026-.05-.052-.102-.08-.152" fill="#FFFFFE"/><path d="M99.459 179.38c-.134-.043-.263-.1-.396-.136-.135-.032-.261-.073-.398-.09l-.2-.034-.201-.013c-.133-.015-.267-.002-.398-.003-.132.005-.263.026-.393.041-.127.032-.257.046-.38.09-.123.039-.246.076-.363.129-.12.042-.232.105-.345.164-.113.058-.215.135-.32.201-.096.082-.202.15-.29.24-.09.087-.182.168-.26.265-.04.047-.083.091-.12.14l-.107.151c-.077.096-.127.21-.191.314l-.023.04-.001.003c.003-.008-.01.016.008-.015l-.001.001-.002.006-.006.012-.01.023-.044.095c-.026.06-.066.133-.077.182-.036.106-.076.21-.105.33-.037.116-.049.237-.074.354l-.148.703-.617-.433c-.127-.09-.248-.185-.377-.27l-.198-.118-.099-.06-.024-.015-.003-.002c-.02-.01.024.014.019.01h-.002l-.007-.003-.015-.007-.057-.028-.232-.11-.117-.057-.102-.035c-.137-.048-.265-.105-.42-.138l-.22-.059c-.075-.017-.151-.025-.226-.038-.076-.011-.15-.03-.227-.037l-.227-.018c-.152-.019-.306-.005-.458-.006-.153 0-.303.03-.456.04-.15.026-.3.054-.45.088-.144.047-.295.077-.437.137-.14.056-.288.103-.422.177l-.206.102c-.066.037-.13.08-.196.12a3.453 3.453 0 0 0-.38.258c-.127.086-.233.2-.35.3-.115.101-.212.222-.32.332-.1.118-.19.245-.286.367l-.263.331-.34-.18c-.097-.053-.191-.114-.294-.16-.1-.053-.205-.09-.31-.133-.108-.032-.215-.072-.326-.095-.11-.03-.223-.043-.336-.063-.113-.008-.228-.024-.343-.022-.115-.006-.23.003-.346.007-.114.014-.231.022-.345.048-.116.017-.228.053-.342.082-.11.04-.224.073-.33.125-.112.042-.217.099-.324.154-.053.026-.103.06-.155.092l-.097.026-.029-.015.01-.009-.003.002.015.025-.01.025-.033.036-.3.24c-.097.08-.168.17-.257.255-.041.044-.088.085-.126.133l-.11.15c-.069.104-.163.197-.216.311l-.188.336c.031-.124.066-.249.102-.375.028-.13.093-.243.145-.364l.084-.181c.03-.06.07-.114.107-.17.075-.111.148-.237.232-.337l.259-.286.032-.035.016-.018.005-.004-.02-.026-.009-.037.01-.009.098-.042c.053-.044.113-.08.168-.12.11-.082.224-.16.343-.23.116-.076.246-.13.37-.193.128-.053.256-.11.39-.15.133-.047.27-.076.408-.11.138-.023.277-.053.419-.06.14-.016.282-.012.425-.013.141.01.284.014.425.038.142.016.281.05.422.08.138.041.277.078.41.131.137.047.267.113.397.176l-.601.15c.104-.155.204-.315.315-.466.121-.143.23-.299.366-.43.136-.13.262-.274.413-.388.146-.12.291-.242.454-.34.08-.052.157-.106.239-.155l.251-.133c.165-.096.343-.161.518-.236.175-.074.361-.116.542-.175a9.01 9.01 0 0 1 .558-.115c.19-.017.378-.05.569-.049.19.001.38-.01.57.013l.284.025c.094.011.188.032.28.05.094.018.188.033.28.056l.274.08c.18.046.367.13.55.203l.137.058.114.06.226.122.057.03.05.028.03.02.117.078.236.158c.152.11.292.237.437.356l-.765.27c.04-.152.07-.306.127-.453.045-.146.112-.299.184-.448.035-.08.07-.127.104-.191l.053-.09.035-.062.033-.048c.091-.125.17-.258.277-.372l.152-.175c.052-.057.11-.107.166-.161.108-.11.23-.202.353-.294.121-.094.26-.164.387-.245.138-.065.271-.138.414-.19.142-.052.281-.107.429-.14.072-.017.144-.04.217-.053l.222-.032c.147-.026.298-.02.444-.03.148.007.294.008.44.027.145.021.289.04.429.084l.208.058.202.076c.136.044.262.122.388.184.124.068.235.151.352.228M133.299 185.702l-.162-.325c-.061-.103-.126-.202-.187-.302-.07-.096-.142-.19-.212-.283-.075-.09-.157-.173-.235-.26-.084-.08-.174-.154-.258-.233-.09-.072-.184-.14-.274-.209l-.292-.18-.306-.15-.317-.12-.324-.09c-.11-.02-.219-.043-.329-.06-.11-.007-.22-.02-.331-.025-.11.003-.221.001-.33.006-.11.015-.22.02-.328.036l-.32.064-.312.096-.305.092-.148-.312-.153-.322c-.055-.104-.117-.206-.175-.309a5.473 5.473 0 0 0-.413-.573l-.055-.068.003-.017.005-.012-.002-.002c.006.006-.024-.01.004.022l-.022-.013-.035-.033-.134-.138c-.088-.09-.18-.193-.264-.256l-.254-.217-.288-.2c-.091-.073-.199-.121-.299-.18-.1-.059-.2-.119-.309-.161-.107-.046-.21-.1-.32-.14l-.33-.111c-.11-.037-.226-.056-.338-.086a2.23 2.23 0 0 0-.343-.063c-.228-.043-.462-.044-.693-.055-.232.011-.465.012-.694.054l-.172.023-.17.04c-.112.03-.228.047-.337.086l-.33.11c-.109.042-.213.095-.32.14-.108.044-.209.103-.31.162-.098.062-.207.107-.298.18l-.287.202-.018.013-.005.003-.002.002.01-.008-.01.007-.036.031-.074.062-.146.124c-.079.08-.16.15-.241.235-.078.087-.164.167-.235.262-.074.091-.149.181-.214.279a4.908 4.908 0 0 0-.523.924l-.275.606-.363-.508-.026-.035.017-.029.02-.022v-.002l.013.015-.004-.004-.037.003-.07-.06-.125-.134c-.04-.052-.08-.084-.118-.12l-.113-.108c-.072-.076-.17-.138-.254-.21-.084-.073-.183-.125-.275-.19-.092-.065-.196-.11-.293-.166-.1-.053-.208-.088-.312-.134-.104-.043-.215-.069-.324-.105-.11-.03-.223-.046-.335-.075-.113-.018-.228-.029-.343-.044-.115-.006-.231-.007-.347-.01l-.35.024-.349.056-.345.091-.336.125-.327.155-.316.187.274-.248.302-.22c.106-.065.217-.124.326-.186.114-.054.231-.103.347-.154.12-.041.241-.08.364-.118l.376-.077c.127-.013.255-.03.385-.04.129 0 .259-.006.388-.001.13.012.26.02.39.04.127.027.258.046.384.08.124.04.254.07.376.12.12.052.248.093.364.156.116.065.24.117.349.194.11.078.223.141.328.234l.16.135c.055.046.109.091.147.134l.13.13.063.066.016.017.004.004.017.02.009.01.03.036-.637.1c.093-.258.196-.515.326-.759.062-.123.13-.244.206-.36.071-.119.154-.23.236-.342.078-.115.173-.216.26-.324.092-.107.198-.21.298-.314l.13-.142.06-.078.036-.031.008-.009.034-.005.026-.01.334-.25c.108-.09.235-.152.353-.227.118-.073.239-.146.368-.202.126-.058.251-.124.381-.176l.395-.142c.132-.05.271-.072.407-.109l.204-.048.208-.031c.277-.05.557-.059.837-.07.28.013.562.02.838.072.139.019.277.041.412.08.135.036.274.063.405.11l.395.142c.13.053.254.118.381.177.128.056.248.13.367.202.118.075.242.141.35.23l.333.253.319.295c.114.1.185.197.272.294l.125.145.03.037.017.018.016.019.002.003.003.004.008.011.06.085c.168.22.314.457.442.7.06.125.121.248.177.374l.148.385-.453-.22.387-.087c.13-.019.261-.033.392-.048.13-.008.262-.01.393-.01.131.006.262.022.391.033.13.02.257.047.385.07.125.033.249.072.373.108.121.045.24.096.359.142.115.057.229.119.34.179l.32.212c.098.08.198.158.294.24.09.09.182.176.267.267.08.097.161.192.236.292.069.105.14.206.204.312.057.11.119.217.17.33.045.115.092.229.132.343l.095.35" fill="#C8C6C1"/><path d="M61.213 186.643l-6.183.732s-20.926-12.587-42.463 7.736l-.006 21.909h230.86s-5.549-15.41-24.203-15.41c-18.653 0-20.116 5.84-20.116 5.84s-6.95-18.982-25.603-10.586c0 0-7.315-16.062-26.311-9.641 0 0-78.66-4.961-85.975-.58" fill="#FFFFFE"/><path d="M59.955 195.586c-.183-.051-.361-.122-.545-.164-.185-.035-.36-.085-.546-.1l-.273-.035-.275-.008c-.18-.012-.362.012-.54.02-.18.012-.357.048-.532.076-.171.05-.346.076-.51.143-.167.06-.331.117-.488.194-.162.065-.31.157-.46.243-.15.084-.284.195-.424.29-.127.117-.266.216-.38.343-.118.122-.24.237-.34.374-.052.066-.108.128-.156.197l-.137.21c-.099.135-.16.294-.242.438l-.029.055-.001.004c.004-.01-.013.023.01-.02h-.001l-.004.009-.007.016-.013.033-.054.131c-.03.084-.082.184-.095.252-.043.147-.091.29-.124.456-.044.158-.053.322-.08.483l-.163.964-.863-.554c-.178-.115-.349-.238-.527-.347l-.277-.15-.137-.076-.034-.019-.004-.003a.729.729 0 0 0 .027.014l-.003-.001-.01-.005-.02-.008-.08-.035-.322-.138-.16-.069-.142-.042c-.188-.057-.365-.129-.577-.165l-.303-.068c-.103-.02-.207-.026-.31-.04-.103-.011-.205-.032-.309-.038l-.311-.01c-.207-.02-.415.008-.622.016-.208.008-.41.057-.617.079-.203.043-.406.09-.606.143-.195.073-.4.121-.587.21-.19.084-.387.156-.565.264l-.275.149c-.088.055-.172.116-.26.174-.177.11-.34.24-.5.373-.17.123-.308.283-.462.425-.15.145-.275.315-.417.47-.129.166-.243.343-.369.515l-.339.464-.47-.227c-.136-.066-.267-.145-.41-.201-.137-.067-.284-.111-.428-.164-.148-.039-.296-.086-.449-.11-.15-.036-.305-.048-.459-.068-.156-.006-.311-.02-.468-.011-.157-.002-.312.016-.47.027-.155.026-.313.042-.466.084-.157.03-.306.085-.46.13-.147.061-.3.113-.443.188-.15.064-.289.146-.432.226-.07.04-.136.09-.205.134l-.13.041-.04-.019-.001.002.013-.013-.003.003.02.033-.01.034-.044.05-.394.344c-.128.113-.22.239-.336.36-.054.061-.115.12-.164.187l-.142.21c-.087.145-.21.276-.275.435l-.239.466c.037-.17.077-.341.119-.514.03-.178.113-.335.177-.504l.104-.25c.038-.082.09-.158.137-.238.096-.154.188-.329.296-.47l.337-.402.042-.05.02-.025.006-.006-.028-.035-.014-.049.013-.012.132-.064c.068-.062.149-.114.22-.172.145-.117.297-.23.454-.331.154-.11.327-.19.492-.283.171-.078.343-.163.524-.224.177-.072.362-.118.547-.172.186-.039.374-.087.566-.105.191-.03.384-.031.577-.04.193.005.388.003.58.028.195.014.386.054.578.087.19.048.38.09.565.156.19.055.368.138.55.215l-.81.237c.133-.215.26-.439.403-.65.156-.201.297-.418.474-.605.177-.184.341-.385.54-.549.192-.172.383-.345.599-.488.105-.074.208-.152.316-.222l.334-.196c.219-.138.458-.237.691-.347.234-.112.485-.179.727-.268.249-.071.5-.132.753-.187.256-.035.51-.088.77-.098.259-.009.517-.035.775-.013l.388.019c.13.01.257.032.385.05.128.022.257.036.383.063l.376.094c.247.052.506.155.759.246l.19.07.157.077.393.191.07.035.04.024.165.1.329.202c.213.142.41.307.614.46l-1.026.41c.047-.21.08-.42.148-.623.053-.202.136-.412.226-.619.044-.112.087-.176.131-.266l.066-.125.045-.086.043-.066c.117-.176.217-.361.356-.521l.196-.246c.068-.08.145-.152.217-.228.142-.155.303-.288.465-.42.159-.134.343-.236.512-.353.184-.096.362-.203.552-.281.19-.078.377-.16.575-.213.098-.028.194-.063.294-.085l.3-.055c.197-.044.402-.043.6-.066.201.002.401-.005.6.013.198.022.395.04.587.091l.287.067.278.093c.187.052.363.15.537.23.172.084.328.192.491.29M120.59 209.264l-.273-.546c-.103-.174-.213-.341-.315-.51-.116-.16-.24-.318-.357-.475-.127-.152-.266-.292-.397-.437-.14-.137-.292-.262-.433-.394-.152-.123-.31-.235-.463-.352l-.491-.303-.516-.252-.533-.203-.545-.153c-.186-.032-.37-.07-.555-.098-.187-.014-.372-.036-.558-.044-.187.005-.372.001-.556.01-.184.025-.369.035-.55.06l-.541.109-.526.16-.514.156-.249-.526-.256-.542c-.095-.176-.198-.346-.296-.52a9.345 9.345 0 0 0-.695-.964l-.093-.116.005-.028.009-.021-.004-.004c.01.011-.04-.016.006.038l-.036-.023-.06-.055-.225-.232c-.148-.152-.302-.325-.444-.43l-.428-.367-.484-.337c-.155-.121-.336-.204-.504-.303-.17-.099-.338-.2-.521-.271-.18-.078-.355-.168-.539-.236l-.556-.187c-.186-.062-.38-.093-.57-.144a3.733 3.733 0 0 0-.576-.107c-.386-.072-.778-.073-1.169-.093-.39.02-.783.021-1.168.092l-.292.039-.285.067c-.188.05-.383.079-.567.146l-.557.186c-.183.069-.358.158-.537.235-.183.072-.352.172-.522.272-.166.104-.349.18-.503.304l-.483.34-.03.02-.008.006-.004.003c-.018.015.021-.019.015-.014l-.015.013-.062.052-.123.105-.246.208c-.134.134-.272.254-.407.396-.13.147-.277.282-.395.44-.125.154-.251.306-.362.471-.118.16-.224.327-.328.496a8.364 8.364 0 0 0-.553 1.06l-.461 1.02-.612-.854-.043-.059.027-.048.036-.039-.001-.002.022.025-.007-.007-.063.005-.118-.101-.21-.227c-.066-.086-.134-.14-.198-.2l-.192-.182c-.12-.127-.286-.234-.427-.354-.142-.123-.308-.212-.463-.322-.155-.108-.33-.182-.495-.277-.167-.09-.349-.15-.523-.227-.177-.072-.364-.116-.547-.177-.184-.05-.375-.078-.564-.125-.19-.032-.384-.049-.578-.075-.194-.01-.389-.01-.586-.018l-.588.041-.587.095-.58.153-.567.21-.552.262-.531.315.462-.418.508-.37c.178-.11.365-.209.55-.315.19-.09.388-.171.584-.258.201-.069.406-.135.612-.199l.634-.13c.215-.022.43-.05.648-.066.217 0 .436-.01.655-.002.217.019.438.032.654.068.215.045.435.075.648.135.21.067.428.117.634.2.203.089.417.158.613.265.195.108.404.196.588.324.184.132.375.239.553.395l.269.227c.09.077.183.155.247.226l.325.33.026.028.008.007.03.035.013.015.051.063-1.072.167c.156-.434.329-.867.548-1.278.104-.208.22-.41.348-.605.12-.2.258-.389.396-.577.132-.194.293-.364.44-.547.152-.18.331-.353.5-.528l.22-.24.1-.13.06-.054.015-.014.056-.008.044-.016.564-.424c.181-.15.395-.254.594-.38.2-.124.402-.246.619-.34.213-.1.424-.208.641-.297l.667-.24c.222-.082.456-.121.685-.183l.344-.082.35-.052c.467-.085.939-.099 1.41-.117.472.023.945.034 1.41.122.234.032.467.069.695.134.228.06.46.105.683.184l.665.242c.219.087.427.198.641.297a5.1 5.1 0 0 1 .619.34c.198.127.407.236.59.387l.56.426.535.498c.193.169.314.33.46.494l.21.245.053.062.027.03.026.032.003.004.006.009.014.018.102.142c.281.372.526.77.744 1.18.1.21.204.419.298.63l.249.648-.763-.37.651-.146c.219-.032.44-.056.66-.082.22-.013.443-.015.663-.016.22.01.44.036.659.056.217.032.432.079.646.118.212.055.42.12.63.181.203.076.403.16.604.24.195.096.385.198.574.3l.536.357c.167.135.335.267.497.406.151.15.306.295.451.448.135.163.271.325.397.492.115.177.236.348.343.526.096.187.2.365.287.554.075.195.154.387.222.579l.16.589M181.438 209.386l-.272-.546c-.103-.175-.212-.342-.315-.51-.116-.16-.239-.318-.356-.476-.128-.15-.266-.292-.398-.437-.14-.137-.292-.261-.433-.393-.151-.123-.31-.235-.463-.353l-.491-.303-.515-.252-.533-.203-.546-.152c-.186-.032-.37-.071-.555-.098-.186-.014-.372-.036-.557-.044-.187.004-.372 0-.557.01-.184.025-.368.034-.55.059l-.54.11-.527.16-.513.156-.249-.526-.257-.542c-.094-.176-.197-.346-.295-.52a9.45 9.45 0 0 0-.695-.964l-.093-.117.004-.028.008-.02-.002-.004c.01.011-.041-.016.005.037l-.035-.022-.06-.055-.225-.232c-.149-.152-.303-.326-.445-.431l-.428-.366-.484-.338c-.155-.12-.336-.203-.504-.303-.17-.098-.338-.198-.521-.27-.18-.078-.355-.168-.538-.236l-.558-.187c-.185-.062-.38-.094-.568-.144a3.733 3.733 0 0 0-.577-.107c-.385-.072-.778-.074-1.168-.094-.391.02-.783.022-1.169.092l-.291.039-.285.068c-.189.05-.384.079-.568.145l-.557.186c-.182.07-.357.158-.538.236-.182.072-.35.172-.52.271-.166.104-.35.181-.504.304l-.483.34-.03.022-.008.005-.003.002c-.019.015.02-.018.015-.013l-.015.013-.062.052-.124.104-.246.209c-.134.134-.271.254-.407.395-.13.148-.276.283-.394.441-.125.154-.252.306-.362.47-.118.16-.224.327-.328.496-.215.336-.39.695-.554 1.06l-.46 1.022-.613-.855-.043-.059.028-.049.035-.038-.001-.002c.047.053.012.013.022.024l-.007-.006-.063.004-.118-.1-.209-.227c-.067-.087-.135-.14-.198-.2l-.192-.183c-.12-.127-.287-.233-.428-.353-.142-.124-.309-.212-.463-.322-.154-.109-.33-.182-.494-.277-.168-.09-.35-.15-.524-.228-.177-.072-.364-.115-.546-.176-.185-.051-.376-.079-.565-.125-.19-.033-.384-.05-.577-.075-.194-.01-.39-.011-.586-.018l-.589.041-.587.096-.58.151-.567.21-.552.263-.532.314.463-.417.508-.37c.179-.11.365-.21.55-.315.191-.09.388-.172.584-.258a20.6 20.6 0 0 1 .613-.199l.633-.13c.214-.022.43-.05.648-.067.216 0 .436-.01.654-.002.219.02.439.033.656.068.214.046.434.076.647.136.21.067.429.117.634.2.204.088.418.157.614.264.194.108.403.197.587.325.184.132.375.238.553.395l.27.227c.09.077.182.154.247.226l.217.22.107.11.027.028.008.007.03.034.012.016.052.062-1.073.168c.156-.435.328-.867.548-1.278.105-.208.22-.41.349-.606.119-.2.257-.388.396-.576.132-.194.292-.364.439-.547.153-.18.332-.354.5-.528l.22-.24.1-.13.06-.054.016-.013.055-.01.045-.016.564-.422c.18-.152.395-.255.592-.382.2-.124.403-.246.62-.34.214-.099.424-.208.642-.296l.667-.24c.221-.083.455-.122.683-.183l.345-.082.35-.052c.466-.084.939-.099 1.411-.117.471.022.945.033 1.41.121.234.033.467.07.694.134.228.06.461.106.683.185l.665.241c.22.088.428.198.642.297.215.094.417.217.618.34.199.128.407.238.59.387l.56.427.536.498c.193.168.313.33.459.494l.21.245.053.061.027.03.026.032.004.005.006.008.013.018.103.143c.28.372.526.77.743 1.18.1.21.204.418.299.63l.248.648-.763-.37.652-.146c.219-.033.44-.056.66-.083.22-.012.442-.014.662-.015.22.01.44.036.659.055.217.032.432.08.646.12.212.053.421.12.63.18.203.075.404.16.604.24.195.095.386.198.575.3l.536.357c.167.135.335.267.496.405.151.15.306.296.45.449.136.164.273.324.398.492.116.177.236.347.343.526.096.186.2.365.287.553.075.196.154.388.223.58l.158.589" fill="#C8C6C1"/><path d="M140.944 112.524c0 10.115-14.358 23.739-14.358 23.739s-14.357-13.624-14.357-23.739c0-10.116 6.428-12.894 14.357-12.894 7.93 0 14.358 2.778 14.358 12.894" fill="#E4772B"/><path d="M136.495 110.524c0 6.981-9.909 16.384-9.909 16.384s-9.91-9.403-9.91-16.384c0-6.982 4.437-8.9 9.91-8.9s9.91 1.918 9.91 8.9" fill="#E4AD2C"/><path d="M132.326 107.18c0 4.045-5.74 9.49-5.74 9.49s-5.74-5.445-5.74-9.49c0-4.044 2.57-5.154 5.74-5.154 3.17 0 5.74 1.11 5.74 5.155" fill="#F2C76B"/><path d="M114.873 76.33s-19.77 10.359-19.77 32.805c0 0 1.236 2.466 3.212-.494 1.977-2.96 3.707-11.099 16.31-11.099l.248-21.212" fill="#D0021B"/><path d="M138.2 76.33s19.772 10.359 19.772 32.805c0 0-1.237 2.466-3.213-.494-1.979-2.96-3.708-11.099-16.312-11.099L138.2 76.33" fill="#B20A1E"/><path d="M148.487 54.52c0-9.19-1.556-17.84-3.872-25.407h-18.078v7.679c6.688 0 12.11 5.41 12.11 12.086 0 6.675-5.422 12.087-12.11 12.087V99.81h11.83c6.087-9.556 10.12-26.27 10.12-45.29" fill="#DDD"/><path d="M114.427 48.878c0-6.675 5.421-12.086 12.11-12.086v-7.679h-18.078c-2.317 7.567-3.872 16.217-3.872 25.407 0 19.02 4.034 35.734 10.119 45.29h11.83V60.965c-6.688 0-12.11-5.412-12.11-12.087" fill="#FFF"/><path d="M114.874 99.845a.553.553 0 0 0-.553.553v2.577c0 .305.248.552.553.552h11.663v-3.682h-11.663M138.187 99.845h-11.65v3.682h11.65a.554.554 0 0 0 .555-.552v-2.577a.553.553 0 0 0-.555-.553" fill="#D0021B"/><path d="M134.834 48.878c0 4.574-3.715 8.281-8.297 8.281v3.806c6.688 0 12.11-5.412 12.11-12.087s-5.422-12.086-12.11-12.086v3.805c4.582 0 8.297 3.707 8.297 8.28" fill="#B20A1E"/><path d="M114.427 48.878c0 6.675 5.421 12.087 12.11 12.087v-3.806c-4.584 0-8.298-3.707-8.298-8.281 0-4.574 3.714-8.281 8.298-8.281v-3.805c-6.689 0-12.11 5.41-12.11 12.086" fill="#D0021B"/><path d="M134.834 48.878c0-4.574-3.715-8.281-8.297-8.281v16.562c4.582 0 8.297-3.707 8.297-8.281" fill="#DDD"/><path d="M118.239 48.878c0 4.574 3.714 8.281 8.298 8.281V40.597c-4.584 0-8.298 3.707-8.298 8.28" fill="#FFF"/><path d="M126.537.762v28.351h18.078C139.445 12.237 130.485.762 126.537.762" fill="#B20A1E"/><path d="M126.537.762c-3.949 0-12.909 11.475-18.078 28.351h18.078V.762" fill="#D0021B"/><path d="M127.297 82.471a.639.639 0 0 0-.19-.03h-.57v27.685h.64a.63.63 0 0 0 .63-.628v-.842l.024-1.214 1.749-22.262c0-2.257-1.896-2.612-2.283-2.709" fill="#AA3545"/><path d="M125.914 82.441h-.017a.647.647 0 0 0-.19.03c-.11.028-.235.077-.357.148-.688.223-1.858.822-1.858 2.593l1.752 22.285.023 1.127v.84c0 .265.162.49.394.584.09.05.195.078.304.078h.572V82.441h-.623" fill="#D73753"/></g></svg>