<svg width="328" height="137" xmlns="http://www.w3.org/2000/svg"><g fill="none" fill-rule="evenodd"><path fill="#9B9B9B" d="M156.445 105.537h13.566V129.3h-13.566z"/><path d="M89.094 123.281a.5.5 0 0 0-.5.5v3.5a1.5 1.5 0 0 0 1.5 1.5h145.872a1.5 1.5 0 0 0 1.5-1.5v-3.5a.5.5 0 0 0-.5-.5H89.094z" stroke="#DDD" fill="#444"/><path d="M242.795 8.221v94.445l6.028 3.642c1.483-1.986 2.378-4.557 2.378-7.365V12.036c0-6.287-4.478-11.38-10.002-11.38H87.796c-2.985 0-5.664 1.486-7.497 3.844l6.16 3.721h156.336" fill-opacity=".87" fill="#000"/><path d="M242.795 102.666v.09H86.198V8.22h.26l-6.16-3.72c-1.559 2.007-2.506 4.645-2.506 7.535v86.907c0 6.282 4.478 11.379 10.004 11.379H241.2c3.054 0 5.789-1.559 7.624-4.014l-6.028-3.642" fill="#444"/><path fill="#5A9930" d="M86.353 102.039H242.95V7.504H86.353z"/><path d="M125.497 56.232c0 .032-.016.256-.048.672h-6.512c.117.534.395.955.832 1.264.437.31.981.464 1.632.464.448 0 .845-.066 1.192-.2.347-.133.67-.344.968-.632l1.328 1.44c-.81.928-1.995 1.392-3.552 1.392-.97 0-1.83-.189-2.576-.568-.747-.378-1.323-.904-1.728-1.576s-.608-1.434-.608-2.288c0-.842.2-1.602.6-2.28.4-.677.95-1.205 1.648-1.584.699-.378 1.48-.568 2.344-.568.843 0 1.605.182 2.288.544a3.97 3.97 0 0 1 1.608 1.56c.39.678.584 1.464.584 2.36zm-4.464-2.576c-.565 0-1.04.16-1.424.48-.384.32-.619.758-.704 1.312h4.24c-.085-.544-.32-.978-.704-1.304-.384-.325-.853-.488-1.408-.488zM127.001 55h4.528v2h-4.528v-2zm9.968-3.232c1.333 0 2.357.318 3.072.952.715.635 1.072 1.592 1.072 2.872v4.912h-2.336v-1.072c-.47.8-1.344 1.2-2.624 1.2-.661 0-1.235-.112-1.72-.336-.485-.224-.856-.533-1.112-.928a2.415 2.415 0 0 1-.384-1.344c0-.8.301-1.429.904-1.888.603-.458 1.533-.688 2.792-.688h1.984c0-.544-.165-.962-.496-1.256-.33-.293-.827-.44-1.488-.44-.459 0-.91.072-1.352.216a3.577 3.577 0 0 0-1.128.584l-.896-1.744c.47-.33 1.032-.586 1.688-.768a7.562 7.562 0 0 1 2.024-.272zm-.192 7.184c.427 0 .805-.098 1.136-.296a1.62 1.62 0 0 0 .704-.872v-.88h-1.712c-1.024 0-1.536.336-1.536 1.008 0 .32.125.574.376.76.25.187.595.28 1.032.28zm17.616-7.184c1.077 0 1.933.318 2.568.952.635.635.952 1.587.952 2.856v4.928h-2.496V55.96c0-.682-.141-1.192-.424-1.528-.283-.336-.685-.504-1.208-.504-.587 0-1.05.19-1.392.568-.341.379-.512.942-.512 1.688v4.32h-2.496V55.96c0-1.354-.544-2.032-1.632-2.032-.576 0-1.035.19-1.376.568-.341.379-.512.942-.512 1.688v4.32h-2.496v-8.608h2.384v.992a3.15 3.15 0 0 1 1.176-.832 3.958 3.958 0 0 1 1.528-.288 3.7 3.7 0 0 1 1.648.36c.49.24.885.59 1.184 1.048a3.53 3.53 0 0 1 1.336-1.04 4.215 4.215 0 0 1 1.768-.368zm10.848 0c.8 0 1.528.184 2.184.552.656.368 1.17.886 1.544 1.552.373.667.56 1.443.56 2.328 0 .886-.187 1.662-.56 2.328a3.964 3.964 0 0 1-1.544 1.552 4.387 4.387 0 0 1-2.184.552c-1.184 0-2.085-.373-2.704-1.12v.992h-2.384V48.632h2.496v4.176c.63-.693 1.493-1.04 2.592-1.04zm-.432 6.816c.64 0 1.165-.216 1.576-.648.41-.432.616-1.01.616-1.736 0-.725-.205-1.304-.616-1.736-.41-.432-.936-.648-1.576-.648s-1.165.216-1.576.648c-.41.432-.616 1.011-.616 1.736 0 .726.205 1.304.616 1.736.41.432.936.648 1.576.648zm6.384-6.688h2.496v8.608h-2.496v-8.608zm1.248-1.2c-.459 0-.832-.133-1.12-.4a1.297 1.297 0 0 1-.432-.992c0-.394.144-.725.432-.992.288-.266.661-.4 1.12-.4.459 0 .832.128 1.12.384.288.256.432.576.432.96 0 .416-.144.76-.432 1.032-.288.272-.661.408-1.12.408zm12 5.536c0 .032-.016.256-.048.672h-6.512c.117.534.395.955.832 1.264.437.31.981.464 1.632.464.448 0 .845-.066 1.192-.2.347-.133.67-.344.968-.632l1.328 1.44c-.81.928-1.995 1.392-3.552 1.392-.97 0-1.83-.189-2.576-.568-.747-.378-1.323-.904-1.728-1.576s-.608-1.434-.608-2.288c0-.842.2-1.602.6-2.28.4-.677.95-1.205 1.648-1.584.699-.378 1.48-.568 2.344-.568.843 0 1.605.182 2.288.544a3.97 3.97 0 0 1 1.608 1.56c.39.678.584 1.464.584 2.36zm-4.464-2.576c-.565 0-1.04.16-1.424.48-.384.32-.619.758-.704 1.312h4.24c-.085-.544-.32-.978-.704-1.304-.384-.325-.853-.488-1.408-.488zm11.36-1.888c1.067 0 1.928.32 2.584.96.656.64.984 1.59.984 2.848v4.928h-2.496V55.96c0-.682-.15-1.192-.448-1.528-.299-.336-.73-.504-1.296-.504-.63 0-1.13.195-1.504.584-.373.39-.56.968-.56 1.736v4.256h-2.496v-8.608h2.384v1.008a3.31 3.31 0 0 1 1.232-.84 4.292 4.292 0 0 1 1.616-.296zm11.376 8.32a2.566 2.566 0 0 1-.904.408 4.57 4.57 0 0 1-1.128.136c-1.024 0-1.816-.261-2.376-.784-.56-.522-.84-1.29-.84-2.304v-3.536h-1.328v-1.92h1.328v-2.096h2.496v2.096h2.144v1.92h-2.144v3.504c0 .363.093.643.28.84.187.198.45.296.792.296.395 0 .73-.106 1.008-.32l.672 1.76zm9.568-3.856c0 .032-.016.256-.048.672h-6.512c.117.534.395.955.832 1.264.437.31.981.464 1.632.464.448 0 .845-.066 1.192-.2.347-.133.67-.344.968-.632l1.328 1.44c-.81.928-1.995 1.392-3.552 1.392-.97 0-1.83-.189-2.576-.568-.747-.378-1.323-.904-1.728-1.576s-.608-1.434-.608-2.288c0-.842.2-1.602.6-2.28.4-.677.95-1.205 1.648-1.584.699-.378 1.48-.568 2.344-.568.843 0 1.605.182 2.288.544a3.97 3.97 0 0 1 1.608 1.56c.39.678.584 1.464.584 2.36zm-4.464-2.576c-.565 0-1.04.16-1.424.48-.384.32-.619.758-.704 1.312h4.24c-.085-.544-.32-.978-.704-1.304-.384-.325-.853-.488-1.408-.488z" fill="#FFF"/><g stroke="#DDD"><path d="M251.628 121.114a4.877 4.877 0 0 0-3.128 4.553V128a.5.5 0 0 0 .5.5h24a.5.5 0 0 0 .5-.5v-2.333a4.877 4.877 0 0 0-3.128-4.553c-2.799-1.075-5.922-1.614-9.372-1.614s-6.573.539-9.372 1.614z" fill="#4A4A4A"/><path d="M261 120v3.041" stroke-linecap="square"/></g><g stroke="#707070"><path d="M310.5 122c4.086 0 11.5-6.333 11.5-10 0-4.148-3.56-6.498-7.486-4.143-1 .6-4.225 2.37-4.829 2.748C307.68 111.858 307 112.89 307 115c0 5.597.555 7 3.5 7z" stroke-width="2" fill="#F5F5F5"/><path d="M295 101.5a2.5 2.5 0 0 0-2.5 2.5v22a2.5 2.5 0 0 0 2.5 2.5h18a2.5 2.5 0 0 0 2.5-2.5v-22a2.5 2.5 0 0 0-2.5-2.5h-18z" fill="#FFF"/></g><path fill="#707070" d="M0 129h328v8H0z"/><g><path stroke="#707070" fill="#FFF" d="M13.5 99.5h51.258v29.171H13.5z"/><path fill="#707070" d="M15.903 97h1.935v4.571h-1.935zM20.742 97h1.935v4.571h-1.935zM25.581 97h1.935v4.571h-1.935zM30.419 97h1.935v4.571h-1.935zM35.258 97h1.935v4.571h-1.935zM40.097 97h1.935v4.571h-1.935zM44.935 97h1.935v4.571h-1.935zM49.774 97h1.935v4.571h-1.935zM54.613 97h1.935v4.571h-1.935zM59.452 97h1.935v4.571h-1.935z"/><path d="M24.234 119.144c-.872 0-1.658-.188-2.358-.564a4.186 4.186 0 0 1-1.644-1.554c-.396-.66-.594-1.402-.594-2.226 0-.824.198-1.566.594-2.226a4.186 4.186 0 0 1 1.644-1.554c.7-.376 1.486-.564 2.358-.564.872 0 1.656.188 2.352.564a4.24 4.24 0 0 1 1.644 1.554c.4.66.6 1.402.6 2.226 0 .824-.2 1.566-.6 2.226a4.24 4.24 0 0 1-1.644 1.554c-.696.376-1.48.564-2.352.564zm0-1.656c.496 0 .944-.114 1.344-.342.4-.228.714-.546.942-.954.228-.408.342-.872.342-1.392 0-.52-.114-.984-.342-1.392a2.454 2.454 0 0 0-.942-.954 2.666 2.666 0 0 0-1.344-.342c-.496 0-.944.114-1.344.342-.4.228-.714.546-.942.954a2.804 2.804 0 0 0-.342 1.392c0 .52.114.984.342 1.392.228.408.542.726.942.954.4.228.848.342 1.344.342zm9.792 1.656c-1.2 0-2.134-.332-2.802-.996-.668-.664-1.002-1.612-1.002-2.844V110.6h1.944v4.632c0 1.504.624 2.256 1.872 2.256.608 0 1.072-.182 1.392-.546.32-.364.48-.934.48-1.71V110.6h1.92v4.704c0 1.232-.334 2.18-1.002 2.844-.668.664-1.602.996-2.802.996zm7.32-6.96h-2.688V110.6h7.32v1.584H43.29V119h-1.944v-6.816zM53.13 110.6v8.4h-1.944v-6.84h-1.68v-1.56h3.624zm4.704 0v8.4H55.89v-6.84h-1.68v-1.56h3.624z" fill="#5A9930"/><path d="M64.79 103.175V128.5h7.54l-7.54-25.325z" stroke="#707070" fill="#5A9930"/></g></g></svg>