<?xml version="1.0" encoding="UTF-8"?>
<svg width="272px" height="179px" viewBox="0 0 272 179" version="1.1" xmlns="http://www.w3.org/2000/svg" xmlns:xlink="http://www.w3.org/1999/xlink">
    <defs></defs>
    <g id="Page-1" stroke="none" stroke-width="1" fill="none" fill-rule="evenodd">
        <g id="erro-404-pmf" transform="translate(-603.000000, -171.000000)">
            <g id="OJ8XZ21-Copy" transform="translate(603.000000, 171.000000)">
                <g id="Group" transform="translate(0.000000, 157.969072)">
                    <path d="M268.865813,0 L3.12162344,0 C1.39758621,0 0,1.26789085 0,2.83245999 L0,2.9223979 C0,6.17359476 0.65721437,9.34478192 1.90052159,12.0919761 C4.31646504,17.4310172 8.63840096,20.6185567 13.4619206,20.6185567 L258.522619,20.6185567 C263.34601,20.6185567 267.669942,17.4316012 270.08743,12.0931441 C271.332861,9.34478192 271.990655,6.17359476 271.990655,2.9223979 C271.990655,2.87334086 271.989367,2.82253178 271.986793,2.76880264 C271.949462,1.23401814 270.566293,0 268.865813,0 Z" id="Fill-3" fill="#DDDDDD"></path>
                    <path d="M270.552555,2.19110024 C270.552555,2.15842507 270.549296,2.12382783 270.549296,2.09243404 L1.44086169,2.09243404 C1.44086169,2.12382783 1.44086169,2.15842507 1.44086169,2.19110024 C1.44086169,5.46630555 2.06135808,8.51534743 3.12858579,11.0704176 L268.863137,11.0704176 C269.931407,8.51534743 270.552555,5.46630555 270.552555,2.19110024" id="Fill-4" fill="#F5F5F5"></path>
                    <path d="M3.12858579,11.0704176 C4.99581062,15.5411497 8.23164713,18.4972916 11.9119989,18.4972916 L260.075161,18.4972916 C263.755122,18.4972916 266.993826,15.5411497 268.863137,11.0704176 L3.12858579,11.0704176" id="Fill-5" fill="#9B9B9B"></path>
                    <path d="M96.6819077,10.2945425 C96.6819077,12.4081775 98.4247725,14.1181781 100.575001,14.1181781 L171.415222,14.1181781 C173.568058,14.1181781 175.310923,12.4081775 175.310923,10.2945425 C175.310923,8.18154814 173.568058,6.46706273 171.415222,6.46706273 L100.575001,6.46706273 C98.4247725,6.46706273 96.6819077,8.18154814 96.6819077,10.2945425" id="Fill-7" fill="#FFFFFF"></path>
                </g>
                <g id="Group-2" transform="translate(8.000000, 0.000000)" fill="#000000">
                    <path d="M243.302967,10.8694158 L243.302967,145.997938 L252.190137,151.208247 C254.376466,148.367698 255.696527,144.689347 255.696527,140.67079 L255.696527,16.3278351 C255.696527,7.33264605 249.094846,0.0439862543 240.949995,0.0439862543 L14.7910157,0.0439862543 C10.3897114,0.0439862543 6.44006481,2.17182131 3.73789975,5.54570447 L12.8187058,10.8694158 L243.302967,10.8694158" id="Fill-9" fill-opacity="0.87"></path>
                    <path d="M243.302967,145.997938 L243.302967,146.12646 L12.4355646,146.12646 L12.4355646,10.8694158 L12.8187058,10.8694158 L3.73789975,5.54570447 C1.43815696,8.41786942 0.041798481,12.1917526 0.041798481,16.3278351 L0.041798481,140.67079 C0.041798481,149.659794 6.64375494,156.95189 14.7910157,156.95189 L240.949995,156.95189 C245.453489,156.95189 249.484597,154.721649 252.190137,151.208247 L243.302967,145.997938" id="Fill-10" fill-opacity="0.7"></path>
                </g>
                <g id="Group-3" transform="translate(20.520506, 2.721649)">
                    <polygon id="Fill-6" fill="#9B9B9B" points="0.0406278481 143.298282 230.90803 143.298282 230.90803 8.04123711 0.0406278481 8.04123711"></polygon>
                    <path d="M112,2.99298559 C112,4.6468984 113.343156,5.98797653 115.00226,5.98797653 C116.656844,5.98797653 118,4.6468984 118,2.99298559 C118,1.34007546 116.656844,0 115.00226,0 C113.343156,0 112,1.34007546 112,2.99298559" id="Fill-8" fill="#B7B5B1"></path>
                </g>
                <g id="Group-4" transform="translate(76.000000, 28.000000)">
                    <polygon id="flash---Material-Design-Icons" fill="#F8E71C" points="52.2201664 44 80.2761872 51.5647342 63.0294219 70.9519688 74.3042714 73.9920021 45.6458337 102.462445 52.3905856 77.1328251 44 74.8704746"></polygon>
                    <path d="M17.5314959,22.7631532 C19.4166124,22.7631532 21.1131918,23.0476898 22.621285,23.6167714 C22.8097967,16.7877913 25.1190298,11.1919055 29.5490536,6.82894595 C33.9790774,2.46598645 39.4929605,0.189693892 46.0908683,0 C50.9921712,0 55.3750013,1.32783732 59.2394902,3.98355181 C63.103979,6.63926629 65.8844842,10.1485506 67.5810891,14.5115102 C71.3513221,9.76916286 76.4410603,7.30317926 82.8504565,7.11348537 C88.3172943,7.30317926 92.8415061,9.20008972 96.4232275,12.8042737 C100.004949,16.4084576 101.890037,20.9610427 102.078549,26.4621656 C102.078549,27.9797167 101.89004,29.4023996 101.513017,30.7302568 C103.02111,30.1611751 104.623435,29.8766386 106.32004,29.8766386 C110.467296,30.0663324 113.860455,31.4890153 116.499618,34.1447298 C119.138781,36.8004443 120.458343,40.1674603 120.458343,44.245879 C120.458343,48.3242977 119.138781,51.6913137 116.499618,54.3470282 C113.860455,57.0027427 110.467296,58.4254256 106.32004,58.6151194 L17.5314959,58.6151194 C12.630193,58.4254256 8.48299886,56.6707834 5.08978913,53.3511403 C1.69657941,50.0314972 0,45.8108714 0,40.6891363 C0,35.5674012 1.69657941,31.3467755 5.08978913,28.0271324 C8.48299886,24.7074893 12.630193,22.9528471 17.5314959,22.7631532 Z" id="amazon-clouddrive---Material-Design-Icons" fill="#4A4A4A"></path>
                </g>
            </g>
        </g>
    </g>
</svg>