<svg xmlns="http://www.w3.org/2000/svg" width="272" height="179" viewBox="0 0 272 179">
    <g fill="none" fill-rule="evenodd">
        <path fill="#DDD" d="M268.866 157.97H3.122c-1.724 0-3.122 1.267-3.122 2.832v.09c0 3.25.657 6.422 1.9 9.169 2.416 5.34 6.738 8.527 11.562 8.527h245.06c4.824 0 9.148-3.187 11.565-8.526 1.246-2.748 1.904-5.92 1.904-9.17 0-.05-.002-.1-.004-.154-.038-1.535-1.42-2.769-3.121-2.769z"/>
        <path fill="#F5F5F5" d="M270.553 160.16c0-.033-.004-.067-.004-.098H1.441v.098c0 3.275.62 6.324 1.688 8.88h265.734c1.068-2.556 1.69-5.605 1.69-8.88"/>
        <path fill="#9B9B9B" d="M3.129 169.04c1.867 4.47 5.103 7.426 8.783 7.426h248.163c3.68 0 6.919-2.956 8.788-7.427H3.13"/>
        <path fill="#FFF" d="M96.682 168.264c0 2.113 1.743 3.823 3.893 3.823h70.84c2.153 0 3.896-1.71 3.896-3.823s-1.743-3.828-3.896-3.828h-70.84c-2.15 0-3.893 1.715-3.893 3.828"/>
        <g fill="#000">
            <path fill-opacity=".87" d="M251.303 10.87v135.128l8.887 5.21c2.186-2.84 3.507-6.519 3.507-10.537V16.328c0-8.995-6.602-16.284-14.747-16.284H22.791c-4.401 0-8.35 2.128-11.053 5.502l9.08 5.323h230.485"/>
            <path fill-opacity=".7" d="M251.303 145.998v.128H20.436V10.87h.383l-9.081-5.323c-2.3 2.872-3.696 6.646-3.696 10.782V140.67c0 8.989 6.602 16.28 14.749 16.28H248.95c4.503 0 8.535-2.23 11.24-5.743l-8.887-5.21"/>
        </g>
        <g>
            <path fill="#FFF" d="M20.561 146.02H251.43V10.763H20.56z"/>
            <path fill="#B7B5B1" d="M132.52 5.715a2.998 2.998 0 0 0 3.003 2.995 2.997 2.997 0 0 0 2.998-2.995 2.996 2.996 0 0 0-2.998-2.993 2.997 2.997 0 0 0-3.002 2.993"/>
        </g>
        <path fill="#D0021B" d="M138.953 87.047V74.953h-5.906v12.094h5.906zm0 11.953v-6.047h-5.906V99h5.906zm-36 9L136 51.047 169.047 108h-66.094z"/>
    </g>
</svg>