<?xml version="1.0" encoding="iso-8859-1"?>
<!DOCTYPE svg PUBLIC "-//W3C//DTD SVG 1.1//EN" "http://www.w3.org/Graphics/SVG/1.1/DTD/svg11.dtd">
<svg version="1.1" id="Manutencao" xmlns="http://www.w3.org/2000/svg" xmlns:xlink="http://www.w3.org/1999/xlink" x="0px" y="0px"
	 width="612px" height="612px" viewBox="0 0 612 612" style="enable-background:new 0 0 612 612;" xml:space="preserve">
<g>
	<g id="Shape_24">
		<g>
			<path d="M603.511,479.249L354.122,73.515c-10.354-16.866-28.358-26.925-48.116-26.925c-19.782,0-37.773,10.059-48.128,26.925
				L8.489,479.249c-10.874,17.694-11.331,39.084-1.199,57.21c10.12,18.127,28.556,28.951,49.314,28.951h498.791
				c20.746,0,39.194-10.824,49.314-28.951C614.842,518.32,614.385,496.943,603.511,479.249z M583.024,524.325
				c-5.685,10.157-16.002,16.212-27.629,16.212H56.604c-11.627,0-21.945-6.055-27.629-16.212c-5.671-10.156-5.412-22.13,0.68-32.04
				L279.044,86.526c5.795-9.44,15.878-15.075,26.961-15.075c11.071,0,21.154,5.635,26.949,15.087l249.402,405.735
				C588.437,502.183,588.684,514.169,583.024,524.325z M307.452,141.648c-6.871,0-12.431,5.56-12.431,12.43v211.394
				c0,6.87,5.56,12.431,12.431,12.431c6.87,0,12.431-5.561,12.431-12.431V154.078C319.87,147.208,314.31,141.648,307.452,141.648z
				 M307.452,415.219c-6.871,0-12.431,5.561-12.431,12.431v49.734c0,6.87,5.56,12.431,12.431,12.431
				c6.87,0,12.431-5.561,12.431-12.431v-49.734C319.87,420.779,314.31,415.219,307.452,415.219z"/>
		</g>
	</g>
</g>
</svg>